<svg width="49" height="34" viewBox="0 0 49 34" fill="none" xmlns="http://www.w3.org/2000/svg">
<rect width="49" height="34" rx="6" fill="#0E333B"/>
<path d="M9.88636 11.3636L13.3409 21.1591H13.4773L16.9318 11.3636H18.4091L14.1364 23H12.6818L8.40909 11.3636H9.88636ZM20.2216 23V11.3636H21.6307V17.1364H21.767L26.9943 11.3636H28.8352L23.9489 16.6136L28.8352 23H27.1307L23.0852 17.5909L21.6307 19.2273V23H20.2216ZM39.4759 15H38.0668C37.9834 14.5947 37.8376 14.2386 37.6293 13.9318C37.4247 13.625 37.1747 13.3674 36.8793 13.1591C36.5876 12.947 36.2637 12.7879 35.9077 12.6818C35.5516 12.5758 35.1804 12.5227 34.794 12.5227C34.0895 12.5227 33.4512 12.7008 32.8793 13.0568C32.3111 13.4129 31.8584 13.9375 31.5213 14.6307C31.188 15.3239 31.0213 16.1742 31.0213 17.1818C31.0213 18.1894 31.188 19.0398 31.5213 19.733C31.8584 20.4261 32.3111 20.9508 32.8793 21.3068C33.4512 21.6629 34.0895 21.8409 34.794 21.8409C35.1804 21.8409 35.5516 21.7879 35.9077 21.6818C36.2637 21.5758 36.5876 21.4186 36.8793 21.2102C37.1747 20.9981 37.4247 20.7386 37.6293 20.4318C37.8376 20.1212 37.9834 19.7652 38.0668 19.3636H39.4759C39.3698 19.9583 39.1766 20.4905 38.8963 20.9602C38.616 21.4299 38.2675 21.8295 37.8509 22.1591C37.4342 22.4848 36.9664 22.733 36.4474 22.9034C35.9323 23.0739 35.3812 23.1591 34.794 23.1591C33.8016 23.1591 32.919 22.9167 32.1463 22.4318C31.3736 21.947 30.7656 21.2576 30.3224 20.3636C29.8793 19.4697 29.6577 18.4091 29.6577 17.1818C29.6577 15.9545 29.8793 14.8939 30.3224 14C30.7656 13.1061 31.3736 12.4167 32.1463 11.9318C32.919 11.447 33.8016 11.2045 34.794 11.2045C35.3812 11.2045 35.9323 11.2898 36.4474 11.4602C36.9664 11.6307 37.4342 11.8807 37.8509 12.2102C38.2675 12.536 38.616 12.9337 38.8963 13.4034C39.1766 13.8693 39.3698 14.4015 39.4759 15Z" fill="white"/>
</svg>
